<?xml version="1.0" encoding="UTF-8"?>
<svg xmlns="http://www.w3.org/2000/svg" version="1.1" viewBox="0 0 655.1 333.9">
  <defs>
    <style>
      .cls-1 {
        fill: #fff;
      }

      .cls-2 {
        fill: #ffc629;
        fill-rule: evenodd;
      }

      .cls-3 {
        fill: #002d74;
      }
    </style>
  </defs>
  <!-- Generator: Adobe Illustrator 28.7.1, SVG Export Plug-In . SVG Version: 1.2.0 Build 142)  -->
  <g>
    <g id="katman_1">
      <g>
        <rect class="cls-3" x="99.9" y="174.4" width="214" height="103.4"/>
        <g>
          <g>
            <path class="cls-2" d="M154.2,191.2s-46.7,13.2-36.8,38.8c0,0,7.5,20.8,36.5,30.9,0,0-36.5-26.2-22.1-48.7,0,0,3.5-6.8,22.4-21.1Z"/>
            <path class="cls-2" d="M174.2,203.1s-42.2,8.2-36.8,25.3c0,0,4.6,13.6,36.5,23.5,0,0-34.6-20.1-21.8-33.6,0,0,3.6-5.6,22.2-15.2Z"/>
            <path class="cls-2" d="M193.4,211.5s-38.7,4.8-33.6,17.7c0,0,1.2,9.3,33.7,16.7,0,0-32.6-11.9-19.3-23.4,0,0,7.2-7,19.2-11Z"/>
            <path class="cls-2" d="M187.9,229.1c0-4.6,5.1-8.2,11.5-8.2s11.5,3.7,11.5,8.2-5.1,8.2-11.5,8.2-11.5-3.7-11.5-8.2Z"/>
          </g>
          <g>
            <path class="cls-1" d="M231.3,212.2h-3.6l-5.8-10.1h0c.1,1.8.2,3,.2,3.8v6.3h-2.5v-13.3h3.6l5.8,10h0c0-1.7-.1-3-.1-3.7v-6.3h2.5v13.3Z"/>
            <path class="cls-1" d="M242.7,212.2h-7.7v-13.3h7.7v2.3h-4.8v2.9h4.5v2.3h-4.5v3.4h4.8v2.3Z"/>
            <path class="cls-1" d="M251,212.2h-2.8v-11h-3.6v-2.3h10v2.3h-3.6v11Z"/>
            <path class="cls-1" d="M257,212.2v-13.3h2.8v11h5.4v2.3h-8.2Z"/>
            <path class="cls-1" d="M280,205.5c0,2.2-.5,3.9-1.6,5.1s-2.7,1.8-4.7,1.8-3.6-.6-4.7-1.8-1.6-2.9-1.6-5.1.5-3.9,1.6-5.1c1.1-1.2,2.7-1.8,4.7-1.8s3.6.6,4.7,1.8c1.1,1.2,1.6,2.9,1.6,5.1ZM270.3,205.5c0,1.5.3,2.6.8,3.4.6.8,1.4,1.1,2.5,1.1,2.2,0,3.4-1.5,3.4-4.5s-1.1-4.5-3.4-4.5-2,.4-2.5,1.1c-.6.8-.9,1.9-.9,3.4Z"/>
            <path class="cls-1" d="M288.2,204.7h5.3v6.9c-.9.3-1.7.5-2.4.6s-1.5.2-2.3.2c-2,0-3.5-.6-4.6-1.8-1.1-1.2-1.6-2.9-1.6-5.1s.6-3.8,1.8-5c1.2-1.2,2.9-1.8,5.1-1.8s2.7.3,3.9.8l-.9,2.3c-1-.5-2-.7-3-.7s-2.2.4-2.9,1.2c-.7.8-1.1,1.9-1.1,3.3s.3,2.5.9,3.3,1.5,1.1,2.6,1.1,1.2,0,1.8-.2v-2.8h-2.5v-2.3Z"/>
            <path class="cls-1" d="M219.5,232.8v-13.3h2.8v11h5.4v2.3h-8.2Z"/>
            <path class="cls-1" d="M242.5,226.1c0,2.2-.5,3.9-1.6,5.1-1.1,1.2-2.7,1.8-4.7,1.8s-3.6-.6-4.7-1.8c-1.1-1.2-1.6-2.9-1.6-5.1s.5-3.9,1.6-5.1c1.1-1.2,2.7-1.8,4.7-1.8s3.6.6,4.7,1.8c1.1,1.2,1.6,2.9,1.6,5.1ZM232.8,226.1c0,1.5.3,2.6.8,3.4.6.8,1.4,1.1,2.5,1.1,2.2,0,3.4-1.5,3.4-4.5s-1.1-4.5-3.4-4.5-2,.4-2.5,1.1c-.6.8-.9,1.9-.9,3.4Z"/>
            <path class="cls-1" d="M244.2,236.7c-.6,0-1.2,0-1.7-.2v-2.3c.5.1.9.2,1.3.2.6,0,1.1-.2,1.3-.6s.4-1,.4-1.8v-12.5h2.8v12.4c0,1.6-.4,2.7-1.1,3.5s-1.8,1.2-3.1,1.2Z"/>
            <path class="cls-1" d="M252,216.9c0-.9.5-1.4,1.5-1.4s1.5.5,1.5,1.4-.1.8-.4,1c-.3.2-.6.4-1.1.4-1,0-1.5-.5-1.5-1.4ZM252.2,232.8v-13.3h2.8v13.3h-2.8Z"/>
            <path class="cls-1" d="M266.5,229.1c0,1.2-.4,2.1-1.3,2.8s-2.1,1-3.6,1-2.7-.3-3.8-.8v-2.6c.9.4,1.7.7,2.3.8.6.2,1.2.2,1.7.2s1.1-.1,1.4-.4c.3-.2.5-.6.5-1.1s0-.5-.2-.7c-.1-.2-.4-.4-.6-.6-.3-.2-.9-.5-1.7-.9-.8-.4-1.4-.7-1.8-1.1-.4-.4-.7-.8-1-1.2-.2-.5-.4-1-.4-1.6,0-1.2.4-2.1,1.2-2.8s1.9-1,3.3-1,1.4,0,2,.2c.6.2,1.3.4,2,.7l-.9,2.2c-.7-.3-1.3-.5-1.8-.6s-.9-.2-1.4-.2-.9.1-1.2.4c-.3.2-.4.6-.4,1s0,.5.2.6c.1.2.3.4.6.5.3.2.8.5,1.8.9,1.2.6,2.1,1.2,2.6,1.8.5.6.7,1.3.7,2.2Z"/>
            <path class="cls-1" d="M274.5,232.8h-2.8v-11h-3.6v-2.3h10v2.3h-3.6v11Z"/>
            <path class="cls-1" d="M280.4,216.9c0-.9.5-1.4,1.5-1.4s1.5.5,1.5,1.4-.1.8-.4,1c-.3.2-.6.4-1.1.4-1,0-1.5-.5-1.5-1.4ZM280.5,232.8v-13.3h2.8v13.3h-2.8Z"/>
            <path class="cls-1" d="M297.7,232.8h-3.2l-3.5-5.6-1.2.9v4.7h-2.8v-13.3h2.8v6.1l1.1-1.6,3.6-4.5h3.1l-4.6,5.9,4.7,7.4Z"/>
            <path class="cls-1" d="M224.6,245.9h5.3v6.9c-.9.3-1.7.5-2.4.6-.8.1-1.5.2-2.3.2-2,0-3.5-.6-4.6-1.8s-1.6-2.9-1.6-5.1.6-3.8,1.8-5,2.9-1.8,5.1-1.8,2.7.3,3.9.8l-.9,2.3c-1-.5-2-.7-3-.7s-2.2.4-2.9,1.2c-.7.8-1.1,1.9-1.1,3.3s.3,2.5.9,3.3,1.5,1.1,2.6,1.1,1.2,0,1.8-.2v-2.8h-2.5v-2.3Z"/>
            <path class="cls-1" d="M236.2,248.3v5.1h-2.8v-13.3h3.9c1.8,0,3.1.3,4,1,.9.7,1.3,1.7,1.3,3s-.2,1.5-.6,2.1c-.4.6-1,1.1-1.8,1.4,2,3,3.3,4.9,3.9,5.8h-3.1l-3.2-5.1h-1.5ZM236.2,246h.9c.9,0,1.5-.1,2-.4.4-.3.6-.8.6-1.4s-.2-1.1-.7-1.3-1.1-.4-2-.4h-.9v3.6Z"/>
            <path class="cls-1" d="M256.9,240.1v8.6c0,1-.2,1.8-.7,2.6-.4.7-1.1,1.3-1.9,1.7s-1.8.6-2.9.6c-1.7,0-3-.4-4-1.3-.9-.9-1.4-2.1-1.4-3.6v-8.6h2.8v8.1c0,1,.2,1.8.6,2.3.4.5,1.1.7,2,.7s1.6-.2,2-.7c.4-.5.6-1.2.6-2.3v-8.1h2.8Z"/>
            <path class="cls-1" d="M260.5,240.1h4.1c1.9,0,3.3.3,4.1.8.9.5,1.3,1.4,1.3,2.6s-.2,1.4-.6,2-.9.8-1.5.9h0c.8.3,1.5.6,1.8,1.1.4.5.6,1.2.6,2.1,0,1.2-.4,2.2-1.3,2.8-.9.7-2.1,1-3.6,1h-5v-13.3ZM263.3,245.3h1.6c.8,0,1.3-.1,1.7-.4.3-.2.5-.6.5-1.2s-.2-.9-.6-1.1c-.4-.2-1-.3-1.8-.3h-1.5v3ZM263.3,247.6v3.5h1.8c.8,0,1.3-.1,1.7-.4s.6-.8.6-1.4c0-1.1-.8-1.7-2.4-1.7h-1.7Z"/>
            <path class="cls-1" d="M284.2,240.1v8.6c0,1-.2,1.8-.7,2.6-.4.7-1.1,1.3-1.9,1.7s-1.8.6-2.9.6c-1.7,0-3-.4-4-1.3-.9-.9-1.4-2.1-1.4-3.6v-8.6h2.8v8.1c0,1,.2,1.8.6,2.3.4.5,1.1.7,2,.7s1.6-.2,2-.7c.4-.5.6-1.2.6-2.3v-8.1h2.8Z"/>
          </g>
        </g>
      </g>
      <g>
        <rect class="cls-3" x="346.8" y="175.1" width="214" height="103.4"/>
        <g>
          <g>
            <path class="cls-2" d="M396.8,194.2s-43.6,12.3-34.4,36.2c0,0,7,19.4,34.1,28.9,0,0-34.1-24.4-20.7-45.4,0,0,3.2-6.3,20.9-19.7Z"/>
            <path class="cls-2" d="M415.5,205.3s-39.4,7.6-34.4,23.6c0,0,4.3,12.7,34,21.9,0,0-32.3-18.7-20.4-31.4,0,0,3.4-5.2,20.7-14.2Z"/>
            <path class="cls-2" d="M433.4,213.1s-36.1,4.5-31.4,16.5c0,0,1.1,8.7,31.5,15.6,0,0-30.4-11.1-18-21.9,0,0,6.7-6.6,17.9-10.2Z"/>
            <path class="cls-2" d="M428.2,229.5c0-4.2,4.8-7.7,10.7-7.7s10.7,3.5,10.7,7.7-4.8,7.7-10.7,7.7-10.7-3.5-10.7-7.7Z"/>
          </g>
          <g>
            <path class="cls-1" d="M468.8,213.8h-3.3l-5.4-9.4h0c.1,1.7.2,2.8.2,3.6v5.8h-2.4v-12.4h3.3l5.4,9.3h0c0-1.6-.1-2.8-.1-3.4v-5.9h2.4v12.4Z"/>
            <path class="cls-1" d="M479.4,213.8h-7.2v-12.4h7.2v2.2h-4.5v2.7h4.2v2.2h-4.2v3.2h4.5v2.2Z"/>
            <path class="cls-1" d="M487.2,213.8h-2.6v-10.2h-3.4v-2.2h9.4v2.2h-3.4v10.2Z"/>
            <path class="cls-1" d="M492.8,213.8v-12.4h2.6v10.2h5v2.2h-7.7Z"/>
            <path class="cls-1" d="M514.2,207.6c0,2.1-.5,3.6-1.5,4.7s-2.5,1.7-4.4,1.7-3.4-.6-4.4-1.7-1.5-2.7-1.5-4.8.5-3.6,1.5-4.7c1-1.1,2.5-1.6,4.4-1.6s3.4.5,4.4,1.6c1,1.1,1.5,2.7,1.5,4.7ZM505.2,207.6c0,1.4.3,2.4.8,3.1.5.7,1.3,1.1,2.4,1.1,2.1,0,3.2-1.4,3.2-4.2s-1-4.2-3.1-4.2-1.8.4-2.4,1.1c-.5.7-.8,1.8-.8,3.1Z"/>
            <path class="cls-1" d="M521.9,206.8h4.9v6.4c-.8.3-1.6.4-2.3.5s-1.4.2-2.2.2c-1.9,0-3.3-.6-4.3-1.7-1-1.1-1.5-2.7-1.5-4.7s.6-3.6,1.7-4.7c1.1-1.1,2.7-1.7,4.8-1.7s2.5.3,3.7.8l-.9,2.1c-.9-.5-1.8-.7-2.8-.7s-2,.4-2.7,1.1c-.7.8-1,1.8-1,3.1s.3,2.4.8,3.1,1.4,1.1,2.4,1.1,1.1,0,1.7-.2v-2.6h-2.4v-2.2Z"/>
            <path class="cls-1" d="M457.8,233v-12.4h2.6v10.2h5v2.2h-7.7Z"/>
            <path class="cls-1" d="M479.2,226.8c0,2.1-.5,3.6-1.5,4.7-1,1.1-2.5,1.7-4.4,1.7s-3.4-.6-4.4-1.7c-1-1.1-1.5-2.7-1.5-4.8s.5-3.6,1.5-4.7c1-1.1,2.5-1.6,4.4-1.6s3.4.5,4.4,1.6c1,1.1,1.5,2.7,1.5,4.7ZM470.2,226.8c0,1.4.3,2.4.8,3.1.5.7,1.3,1.1,2.4,1.1,2.1,0,3.2-1.4,3.2-4.2s-1-4.2-3.1-4.2-1.8.4-2.4,1.1c-.5.7-.8,1.8-.8,3.1Z"/>
            <path class="cls-1" d="M486.9,226h4.9v6.4c-.8.3-1.6.4-2.3.5-.7.1-1.4.2-2.2.2-1.9,0-3.3-.6-4.3-1.7s-1.5-2.7-1.5-4.7.6-3.6,1.7-4.7c1.1-1.1,2.7-1.7,4.8-1.7s2.5.3,3.7.8l-.9,2.1c-.9-.5-1.8-.7-2.8-.7s-2,.4-2.7,1.1-1,1.8-1,3.1.3,2.4.8,3.1,1.4,1.1,2.4,1.1,1.1,0,1.7-.2v-2.6h-2.4v-2.2Z"/>
            <path class="cls-1" d="M495.1,233v-12.4h2.6v12.4h-2.6Z"/>
            <path class="cls-1" d="M508.5,229.6c0,1.1-.4,2-1.2,2.6s-1.9,1-3.4,1-2.5-.2-3.5-.7v-2.4c.8.4,1.5.6,2.1.8.6.2,1.1.2,1.6.2s1-.1,1.3-.3c.3-.2.5-.5.5-1s0-.5-.2-.6c-.1-.2-.3-.4-.6-.5-.3-.2-.8-.5-1.6-.8-.8-.4-1.3-.7-1.7-1-.4-.3-.7-.7-.9-1.1-.2-.4-.3-.9-.3-1.5,0-1.1.4-2,1.1-2.6s1.8-.9,3.1-.9,1.3,0,1.8.2c.6.2,1.2.4,1.8.6l-.8,2c-.7-.3-1.2-.5-1.6-.6s-.9-.2-1.3-.2-.9.1-1.1.3c-.3.2-.4.5-.4.9s0,.4.2.6c.1.2.3.3.5.5.2.2.8.5,1.7.9,1.2.6,2,1.1,2.4,1.7.4.6.6,1.2.6,2.1Z"/>
            <path class="cls-1" d="M515.9,233h-2.6v-10.2h-3.4v-2.2h9.4v2.2h-3.4v10.2Z"/>
            <path class="cls-1" d="M521.6,233v-12.4h2.6v12.4h-2.6Z"/>
            <path class="cls-1" d="M532.9,222.6c-1,0-1.8.4-2.3,1.1-.5.7-.8,1.8-.8,3.1,0,2.8,1,4.2,3.1,4.2s1.9-.2,3.2-.7v2.2c-1,.4-2.2.6-3.4.6-1.8,0-3.2-.5-4.1-1.6-1-1.1-1.4-2.7-1.4-4.7s.2-2.4.7-3.4c.5-1,1.1-1.7,2-2.2.9-.5,1.9-.8,3.1-.8s2.4.3,3.6.9l-.8,2.1c-.5-.2-.9-.4-1.4-.6-.5-.2-.9-.2-1.4-.2Z"/>
            <path class="cls-1" d="M546.4,229.6c0,1.1-.4,2-1.2,2.6s-1.9,1-3.4,1-2.5-.2-3.5-.7v-2.4c.8.4,1.5.6,2.1.8.6.2,1.1.2,1.6.2s1-.1,1.3-.3c.3-.2.5-.5.5-1s0-.5-.2-.6c-.1-.2-.3-.4-.6-.5-.3-.2-.8-.5-1.6-.8-.8-.4-1.3-.7-1.7-1-.4-.3-.7-.7-.9-1.1-.2-.4-.3-.9-.3-1.5,0-1.1.4-2,1.1-2.6s1.8-.9,3.1-.9,1.3,0,1.8.2c.6.2,1.2.4,1.8.6l-.8,2c-.7-.3-1.2-.5-1.6-.6s-.9-.2-1.3-.2-.9.1-1.1.3c-.3.2-.4.5-.4.9s0,.4.2.6c.1.2.3.3.5.5.2.2.8.5,1.7.9,1.2.6,2,1.1,2.4,1.7.4.6.6,1.2.6,2.1Z"/>
            <path class="cls-1" d="M462.5,245.2h4.9v6.4c-.8.3-1.6.4-2.3.5-.7.1-1.4.2-2.2.2-1.9,0-3.3-.6-4.3-1.7s-1.5-2.7-1.5-4.7.6-3.6,1.7-4.7,2.7-1.7,4.8-1.7,2.5.3,3.7.8l-.9,2.1c-.9-.5-1.8-.7-2.8-.7s-2,.4-2.7,1.1c-.7.8-1,1.8-1,3.1s.3,2.4.8,3.1,1.4,1.1,2.4,1.1,1.1,0,1.7-.2v-2.6h-2.4v-2.2Z"/>
            <path class="cls-1" d="M473.4,247.5v4.8h-2.6v-12.4h3.6c1.7,0,2.9.3,3.7.9.8.6,1.2,1.5,1.2,2.8s-.2,1.4-.6,1.9c-.4.6-1,1-1.7,1.3,1.9,2.8,3.1,4.6,3.7,5.4h-2.9l-3-4.8h-1.4ZM473.4,245.3h.8c.8,0,1.4-.1,1.8-.4.4-.3.6-.7.6-1.3s-.2-1-.6-1.3-1-.4-1.9-.4h-.8v3.4Z"/>
            <path class="cls-1" d="M493.8,246c0,2.1-.5,3.6-1.5,4.7-1,1.1-2.5,1.7-4.4,1.7s-3.4-.6-4.4-1.7c-1-1.1-1.5-2.7-1.5-4.8s.5-3.6,1.5-4.7c1-1.1,2.5-1.6,4.4-1.6s3.4.5,4.4,1.6c1,1.1,1.5,2.7,1.5,4.7ZM484.8,246c0,1.4.3,2.4.8,3.1.5.7,1.3,1.1,2.4,1.1,2.1,0,3.2-1.4,3.2-4.2s-1-4.2-3.1-4.2-1.8.4-2.4,1.1c-.5.7-.8,1.8-.8,3.1Z"/>
            <path class="cls-1" d="M506.9,239.8v8c0,.9-.2,1.7-.6,2.4-.4.7-1,1.2-1.8,1.6s-1.7.6-2.8.6c-1.6,0-2.8-.4-3.7-1.2-.9-.8-1.3-1.9-1.3-3.4v-8h2.6v7.6c0,1,.2,1.7.6,2.1.4.4,1,.7,1.9.7s1.5-.2,1.9-.7c.4-.4.6-1.2.6-2.1v-7.6h2.6Z"/>
            <path class="cls-1" d="M518.8,243.7c0,1.3-.4,2.4-1.3,3.1-.8.7-2,1.1-3.6,1.1h-1.1v4.4h-2.6v-12.4h4c1.5,0,2.7.3,3.4,1,.8.6,1.2,1.6,1.2,2.9ZM512.9,245.6h.9c.8,0,1.4-.2,1.8-.5s.6-.8.6-1.4-.2-1.1-.5-1.4c-.3-.3-.9-.4-1.6-.4h-1.2v3.7Z"/>
          </g>
        </g>
      </g>
      <g>
        <g>
          <path class="cls-2" d="M149.5,65.7s-46.7,13.2-36.8,38.8c0,0,7.5,20.8,36.5,30.9,0,0-36.5-26.2-22.1-48.7,0,0,3.5-6.8,22.4-21.1Z"/>
          <path class="cls-2" d="M169.5,77.6s-42.2,8.2-36.8,25.3c0,0,4.6,13.6,36.5,23.5,0,0-34.6-20.1-21.8-33.6,0,0,3.6-5.6,22.2-15.2Z"/>
          <path class="cls-2" d="M188.8,86s-38.7,4.8-33.6,17.7c0,0,1.2,9.3,33.7,16.7,0,0-32.6-11.9-19.3-23.4,0,0,7.2-7,19.2-11Z"/>
          <path class="cls-2" d="M183.2,103.6c0-4.6,5.1-8.2,11.5-8.2s11.5,3.7,11.5,8.2-5.1,8.2-11.5,8.2-11.5-3.7-11.5-8.2Z"/>
        </g>
        <g>
          <path class="cls-3" d="M226.6,86.7h-3.6l-5.8-10.1h0c.1,1.8.2,3,.2,3.8v6.3h-2.5v-13.3h3.6l5.8,10h0c0-1.7-.1-3-.1-3.7v-6.3h2.5v13.3Z"/>
          <path class="cls-3" d="M238,86.7h-7.7v-13.3h7.7v2.3h-4.8v2.9h4.5v2.3h-4.5v3.4h4.8v2.3Z"/>
          <path class="cls-3" d="M246.3,86.7h-2.8v-11h-3.6v-2.3h10v2.3h-3.6v11Z"/>
          <path class="cls-3" d="M252.3,86.7v-13.3h2.8v11h5.4v2.3h-8.2Z"/>
          <path class="cls-3" d="M275.3,80c0,2.2-.5,3.9-1.6,5.1s-2.7,1.8-4.7,1.8-3.6-.6-4.7-1.8-1.6-2.9-1.6-5.1.5-3.9,1.6-5.1c1.1-1.2,2.7-1.8,4.7-1.8s3.6.6,4.7,1.8c1.1,1.2,1.6,2.9,1.6,5.1ZM265.6,80c0,1.5.3,2.6.8,3.4.6.8,1.4,1.1,2.5,1.1,2.2,0,3.4-1.5,3.4-4.5s-1.1-4.5-3.4-4.5-2,.4-2.5,1.1c-.6.8-.9,1.9-.9,3.4Z"/>
          <path class="cls-3" d="M283.5,79.2h5.3v6.9c-.9.3-1.7.5-2.4.6s-1.5.2-2.3.2c-2,0-3.5-.6-4.6-1.8-1.1-1.2-1.6-2.9-1.6-5.1s.6-3.8,1.8-5c1.2-1.2,2.9-1.8,5.1-1.8s2.7.3,3.9.8l-.9,2.3c-1-.5-2-.7-3-.7s-2.2.4-2.9,1.2c-.7.8-1.1,1.9-1.1,3.3s.3,2.5.9,3.3,1.5,1.1,2.6,1.1,1.2,0,1.8-.2v-2.8h-2.5v-2.3Z"/>
          <path class="cls-3" d="M214.8,107.3v-13.3h2.8v11h5.4v2.3h-8.2Z"/>
          <path class="cls-3" d="M237.8,100.6c0,2.2-.5,3.9-1.6,5.1-1.1,1.2-2.7,1.8-4.7,1.8s-3.6-.6-4.7-1.8c-1.1-1.2-1.6-2.9-1.6-5.1s.5-3.9,1.6-5.1c1.1-1.2,2.7-1.8,4.7-1.8s3.6.6,4.7,1.8c1.1,1.2,1.6,2.9,1.6,5.1ZM228.1,100.6c0,1.5.3,2.6.8,3.4.6.8,1.4,1.1,2.5,1.1,2.2,0,3.4-1.5,3.4-4.5s-1.1-4.5-3.4-4.5-2,.4-2.5,1.1c-.6.8-.9,1.9-.9,3.4Z"/>
          <path class="cls-3" d="M239.5,111.2c-.6,0-1.2,0-1.7-.2v-2.3c.5.1.9.2,1.3.2.6,0,1.1-.2,1.3-.6s.4-1,.4-1.8v-12.5h2.8v12.4c0,1.6-.4,2.7-1.1,3.5s-1.8,1.2-3.1,1.2Z"/>
          <path class="cls-3" d="M247.4,91.4c0-.9.5-1.4,1.5-1.4s1.5.5,1.5,1.4-.1.8-.4,1c-.3.2-.6.4-1.1.4-1,0-1.5-.5-1.5-1.4ZM247.5,107.3v-13.3h2.8v13.3h-2.8Z"/>
          <path class="cls-3" d="M261.9,103.6c0,1.2-.4,2.1-1.3,2.8s-2.1,1-3.6,1-2.7-.3-3.8-.8v-2.6c.9.4,1.7.7,2.3.8.6.2,1.2.2,1.7.2s1.1-.1,1.4-.4c.3-.2.5-.6.5-1.1s0-.5-.2-.7c-.1-.2-.4-.4-.6-.6-.3-.2-.9-.5-1.7-.9-.8-.4-1.4-.7-1.8-1.1-.4-.4-.7-.8-1-1.2-.2-.5-.4-1-.4-1.6,0-1.2.4-2.1,1.2-2.8s1.9-1,3.3-1,1.4,0,2,.2c.6.2,1.3.4,2,.7l-.9,2.2c-.7-.3-1.3-.5-1.8-.6s-.9-.2-1.4-.2-.9.1-1.2.4c-.3.2-.4.6-.4,1s0,.5.2.6c.1.2.3.4.6.5.3.2.8.5,1.8.9,1.2.6,2.1,1.2,2.6,1.8.5.6.7,1.3.7,2.2Z"/>
          <path class="cls-3" d="M269.8,107.3h-2.8v-11h-3.6v-2.3h10v2.3h-3.6v11Z"/>
          <path class="cls-3" d="M275.7,91.4c0-.9.5-1.4,1.5-1.4s1.5.5,1.5,1.4-.1.8-.4,1c-.3.2-.6.4-1.1.4-1,0-1.5-.5-1.5-1.4ZM275.8,107.3v-13.3h2.8v13.3h-2.8Z"/>
          <path class="cls-3" d="M293.1,107.3h-3.2l-3.5-5.6-1.2.9v4.7h-2.8v-13.3h2.8v6.1l1.1-1.6,3.6-4.5h3.1l-4.6,5.9,4.7,7.4Z"/>
          <path class="cls-3" d="M219.9,120.4h5.3v6.9c-.9.3-1.7.5-2.4.6-.8.1-1.5.2-2.3.2-2,0-3.5-.6-4.6-1.8s-1.6-2.9-1.6-5.1.6-3.8,1.8-5,2.9-1.8,5.1-1.8,2.7.3,3.9.8l-.9,2.3c-1-.5-2-.7-3-.7s-2.2.4-2.9,1.2c-.7.8-1.1,1.9-1.1,3.3s.3,2.5.9,3.3,1.5,1.1,2.6,1.1,1.2,0,1.8-.2v-2.8h-2.5v-2.3Z"/>
          <path class="cls-3" d="M231.5,122.8v5.1h-2.8v-13.3h3.9c1.8,0,3.1.3,4,1,.9.7,1.3,1.7,1.3,3s-.2,1.5-.6,2.1c-.4.6-1,1.1-1.8,1.4,2,3,3.3,4.9,3.9,5.8h-3.1l-3.2-5.1h-1.5ZM231.5,120.5h.9c.9,0,1.5-.1,2-.4.4-.3.6-.8.6-1.4s-.2-1.1-.7-1.3-1.1-.4-2-.4h-.9v3.6Z"/>
          <path class="cls-3" d="M252.2,114.6v8.6c0,1-.2,1.8-.7,2.6-.4.7-1.1,1.3-1.9,1.7s-1.8.6-2.9.6c-1.7,0-3-.4-4-1.3-.9-.9-1.4-2.1-1.4-3.6v-8.6h2.8v8.1c0,1,.2,1.8.6,2.3.4.5,1.1.7,2,.7s1.6-.2,2-.7c.4-.5.6-1.2.6-2.3v-8.1h2.8Z"/>
          <path class="cls-3" d="M255.8,114.6h4.1c1.9,0,3.3.3,4.1.8.9.5,1.3,1.4,1.3,2.6s-.2,1.4-.6,2-.9.8-1.5.9h0c.8.3,1.5.6,1.8,1.1.4.5.6,1.2.6,2.1,0,1.2-.4,2.2-1.3,2.8-.9.7-2.1,1-3.6,1h-5v-13.3ZM258.7,119.8h1.6c.8,0,1.3-.1,1.7-.4.3-.2.5-.6.5-1.2s-.2-.9-.6-1.1c-.4-.2-1-.3-1.8-.3h-1.5v3ZM258.7,122.1v3.5h1.8c.8,0,1.3-.1,1.7-.4s.6-.8.6-1.4c0-1.1-.8-1.7-2.4-1.7h-1.7Z"/>
          <path class="cls-3" d="M279.5,114.6v8.6c0,1-.2,1.8-.7,2.6-.4.7-1.1,1.3-1.9,1.7s-1.8.6-2.9.6c-1.7,0-3-.4-4-1.3-.9-.9-1.4-2.1-1.4-3.6v-8.6h2.8v8.1c0,1,.2,1.8.6,2.3.4.5,1.1.7,2,.7s1.6-.2,2-.7c.4-.5.6-1.2.6-2.3v-8.1h2.8Z"/>
        </g>
      </g>
      <g>
        <g>
          <path class="cls-2" d="M392.1,68.7s-43.6,12.3-34.4,36.2c0,0,7,19.4,34.1,28.9,0,0-34.1-24.4-20.7-45.4,0,0,3.2-6.3,20.9-19.7Z"/>
          <path class="cls-2" d="M410.8,79.8s-39.4,7.6-34.4,23.6c0,0,4.3,12.7,34,21.9,0,0-32.3-18.7-20.4-31.4,0,0,3.4-5.2,20.7-14.2Z"/>
          <path class="cls-2" d="M428.8,87.6s-36.1,4.5-31.4,16.5c0,0,1.1,8.7,31.5,15.6,0,0-30.4-11.1-18-21.9,0,0,6.7-6.6,17.9-10.2Z"/>
          <path class="cls-2" d="M423.6,104c0-4.2,4.8-7.7,10.7-7.7s10.7,3.5,10.7,7.7-4.8,7.7-10.7,7.7-10.7-3.5-10.7-7.7Z"/>
        </g>
        <g>
          <path class="cls-3" d="M464.1,88.3h-3.3l-5.4-9.4h0c.1,1.7.2,2.8.2,3.6v5.8h-2.4v-12.4h3.3l5.4,9.3h0c0-1.6-.1-2.8-.1-3.4v-5.9h2.4v12.4Z"/>
          <path class="cls-3" d="M474.8,88.3h-7.2v-12.4h7.2v2.2h-4.5v2.7h4.2v2.2h-4.2v3.2h4.5v2.2Z"/>
          <path class="cls-3" d="M482.5,88.3h-2.6v-10.2h-3.4v-2.2h9.4v2.2h-3.4v10.2Z"/>
          <path class="cls-3" d="M488.1,88.3v-12.4h2.6v10.2h5v2.2h-7.7Z"/>
          <path class="cls-3" d="M509.6,82.1c0,2.1-.5,3.6-1.5,4.7s-2.5,1.7-4.4,1.7-3.4-.6-4.4-1.7-1.5-2.7-1.5-4.8.5-3.6,1.5-4.7c1-1.1,2.5-1.6,4.4-1.6s3.4.5,4.4,1.6c1,1.1,1.5,2.7,1.5,4.7ZM500.5,82.1c0,1.4.3,2.4.8,3.1.5.7,1.3,1.1,2.4,1.1,2.1,0,3.2-1.4,3.2-4.2s-1-4.2-3.1-4.2-1.8.4-2.4,1.1c-.5.7-.8,1.8-.8,3.1Z"/>
          <path class="cls-3" d="M517.2,81.3h4.9v6.4c-.8.3-1.6.4-2.3.5s-1.4.2-2.2.2c-1.9,0-3.3-.6-4.3-1.7-1-1.1-1.5-2.7-1.5-4.7s.6-3.6,1.7-4.7c1.1-1.1,2.7-1.7,4.8-1.7s2.5.3,3.7.8l-.9,2.1c-.9-.5-1.8-.7-2.8-.7s-2,.4-2.7,1.1c-.7.8-1,1.8-1,3.1s.3,2.4.8,3.1,1.4,1.1,2.4,1.1,1.1,0,1.7-.2v-2.6h-2.4v-2.2Z"/>
          <path class="cls-3" d="M453.1,107.5v-12.4h2.6v10.2h5v2.2h-7.7Z"/>
          <path class="cls-3" d="M474.6,101.3c0,2.1-.5,3.6-1.5,4.7-1,1.1-2.5,1.7-4.4,1.7s-3.4-.6-4.4-1.7c-1-1.1-1.5-2.7-1.5-4.8s.5-3.6,1.5-4.7c1-1.1,2.5-1.6,4.4-1.6s3.4.5,4.4,1.6c1,1.1,1.5,2.7,1.5,4.7ZM465.5,101.3c0,1.4.3,2.4.8,3.1.5.7,1.3,1.1,2.4,1.1,2.1,0,3.2-1.4,3.2-4.2s-1-4.2-3.1-4.2-1.8.4-2.4,1.1c-.5.7-.8,1.8-.8,3.1Z"/>
          <path class="cls-3" d="M482.2,100.5h4.9v6.4c-.8.3-1.6.4-2.3.5-.7.1-1.4.2-2.2.2-1.9,0-3.3-.6-4.3-1.7s-1.5-2.7-1.5-4.7.6-3.6,1.7-4.7c1.1-1.1,2.7-1.7,4.8-1.7s2.5.3,3.7.8l-.9,2.1c-.9-.5-1.8-.7-2.8-.7s-2,.4-2.7,1.1-1,1.8-1,3.1.3,2.4.8,3.1,1.4,1.1,2.4,1.1,1.1,0,1.7-.2v-2.6h-2.4v-2.2Z"/>
          <path class="cls-3" d="M490.4,107.5v-12.4h2.6v12.4h-2.6Z"/>
          <path class="cls-3" d="M503.9,104.1c0,1.1-.4,2-1.2,2.6s-1.9,1-3.4,1-2.5-.2-3.5-.7v-2.4c.8.4,1.5.6,2.1.8.6.2,1.1.2,1.6.2s1-.1,1.3-.3c.3-.2.5-.5.5-1s0-.5-.2-.6c-.1-.2-.3-.4-.6-.5-.3-.2-.8-.5-1.6-.8-.8-.4-1.3-.7-1.7-1-.4-.3-.7-.7-.9-1.1-.2-.4-.3-.9-.3-1.5,0-1.1.4-2,1.1-2.6s1.8-.9,3.1-.9,1.3,0,1.8.2c.6.2,1.2.4,1.8.6l-.8,2c-.7-.3-1.2-.5-1.6-.6s-.9-.2-1.3-.2-.9.1-1.1.3c-.3.2-.4.5-.4.9s0,.4.2.6c.1.2.3.3.5.5.2.2.8.5,1.7.9,1.2.6,2,1.1,2.4,1.7.4.6.6,1.2.6,2.1Z"/>
          <path class="cls-3" d="M511.3,107.5h-2.6v-10.2h-3.4v-2.2h9.4v2.2h-3.4v10.2Z"/>
          <path class="cls-3" d="M516.9,107.5v-12.4h2.6v12.4h-2.6Z"/>
          <path class="cls-3" d="M528.3,97.1c-1,0-1.8.4-2.3,1.1-.5.7-.8,1.8-.8,3.1,0,2.8,1,4.2,3.1,4.2s1.9-.2,3.2-.7v2.2c-1,.4-2.2.6-3.4.6-1.8,0-3.2-.5-4.1-1.6-1-1.1-1.4-2.7-1.4-4.7s.2-2.4.7-3.4c.5-1,1.1-1.7,2-2.2.9-.5,1.9-.8,3.1-.8s2.4.3,3.6.9l-.8,2.1c-.5-.2-.9-.4-1.4-.6-.5-.2-.9-.2-1.4-.2Z"/>
          <path class="cls-3" d="M541.8,104.1c0,1.1-.4,2-1.2,2.6s-1.9,1-3.4,1-2.5-.2-3.5-.7v-2.4c.8.4,1.5.6,2.1.8.6.2,1.1.2,1.6.2s1-.1,1.3-.3c.3-.2.5-.5.5-1s0-.5-.2-.6c-.1-.2-.3-.4-.6-.5-.3-.2-.8-.5-1.6-.8-.8-.4-1.3-.7-1.7-1-.4-.3-.7-.7-.9-1.1-.2-.4-.3-.9-.3-1.5,0-1.1.4-2,1.1-2.6s1.8-.9,3.1-.9,1.3,0,1.8.2c.6.2,1.2.4,1.8.6l-.8,2c-.7-.3-1.2-.5-1.6-.6s-.9-.2-1.3-.2-.9.1-1.1.3c-.3.2-.4.5-.4.9s0,.4.2.6c.1.2.3.3.5.5.2.2.8.5,1.7.9,1.2.6,2,1.1,2.4,1.7.4.6.6,1.2.6,2.1Z"/>
          <path class="cls-3" d="M457.8,119.8h4.9v6.4c-.8.3-1.6.4-2.3.5-.7.1-1.4.2-2.2.2-1.9,0-3.3-.6-4.3-1.7s-1.5-2.7-1.5-4.7.6-3.6,1.7-4.7,2.7-1.7,4.8-1.7,2.5.3,3.7.8l-.9,2.1c-.9-.5-1.8-.7-2.8-.7s-2,.4-2.7,1.1c-.7.8-1,1.8-1,3.1s.3,2.4.8,3.1,1.4,1.1,2.4,1.1,1.1,0,1.7-.2v-2.6h-2.4v-2.2Z"/>
          <path class="cls-3" d="M468.7,122v4.8h-2.6v-12.4h3.6c1.7,0,2.9.3,3.7.9.8.6,1.2,1.5,1.2,2.8s-.2,1.4-.6,1.9c-.4.6-1,1-1.7,1.3,1.9,2.8,3.1,4.6,3.7,5.4h-2.9l-3-4.8h-1.4ZM468.7,119.8h.8c.8,0,1.4-.1,1.8-.4.4-.3.6-.7.6-1.3s-.2-1-.6-1.3-1-.4-1.9-.4h-.8v3.4Z"/>
          <path class="cls-3" d="M489.2,120.5c0,2.1-.5,3.6-1.5,4.7-1,1.1-2.5,1.7-4.4,1.7s-3.4-.6-4.4-1.7c-1-1.1-1.5-2.7-1.5-4.8s.5-3.6,1.5-4.7c1-1.1,2.5-1.6,4.4-1.6s3.4.5,4.4,1.6c1,1.1,1.5,2.7,1.5,4.7ZM480.1,120.5c0,1.4.3,2.4.8,3.1.5.7,1.3,1.1,2.4,1.1,2.1,0,3.2-1.4,3.2-4.2s-1-4.2-3.1-4.2-1.8.4-2.4,1.1c-.5.7-.8,1.8-.8,3.1Z"/>
          <path class="cls-3" d="M502.2,114.3v8c0,.9-.2,1.7-.6,2.4-.4.7-1,1.2-1.8,1.6s-1.7.6-2.8.6c-1.6,0-2.8-.4-3.7-1.2-.9-.8-1.3-1.9-1.3-3.4v-8h2.6v7.6c0,1,.2,1.7.6,2.1.4.4,1,.7,1.9.7s1.5-.2,1.9-.7c.4-.4.6-1.2.6-2.1v-7.6h2.6Z"/>
          <path class="cls-3" d="M514.2,118.2c0,1.3-.4,2.4-1.3,3.1-.8.7-2,1.1-3.6,1.1h-1.1v4.4h-2.6v-12.4h4c1.5,0,2.7.3,3.4,1,.8.6,1.2,1.6,1.2,2.9ZM508.2,120.2h.9c.8,0,1.4-.2,1.8-.5s.6-.8.6-1.4-.2-1.1-.5-1.4c-.3-.3-.9-.4-1.6-.4h-1.2v3.7Z"/>
        </g>
      </g>
    </g>
  </g>
</svg>